<svg width="19" height="20" viewBox="0 0 19 20" fill="none" xmlns="http://www.w3.org/2000/svg">
<path d="M3.85069 3.39221C3.90171 3.34119 3.95428 3.30439 4.0084 3.2815C4.05911 3.26001 4.11833 3.2495 4.18621 3.2495C4.2544 3.2495 4.31486 3.26032 4.36619 3.28212C4.41938 3.30454 4.47072 3.34072 4.51989 3.39067L4.52313 3.39391L5.48287 4.35072C5.62666 4.49374 5.84885 4.50967 6.01012 4.39911C6.123 4.32613 6.24329 4.25578 6.36946 4.18759C6.50321 4.11523 6.63433 4.05028 6.76235 3.99153C6.89579 3.93061 7.03201 3.87324 7.17071 3.81943C7.29642 3.77057 7.4365 3.72078 7.58927 3.67038C7.76415 3.6127 7.87532 3.45004 7.87532 3.27516V1.80347C7.87532 1.73296 7.88645 1.67065 7.90856 1.61637C7.93067 1.56272 7.96438 1.51278 8.01092 1.46639C8.05622 1.42109 8.10539 1.38753 8.1592 1.36573C8.21332 1.34362 8.27579 1.33264 8.34645 1.33264H10.1934C10.2588 1.33264 10.3168 1.34316 10.3675 1.36418C10.4213 1.3863 10.474 1.42248 10.5261 1.47288L10.5268 1.47335C10.5725 1.51912 10.6062 1.56782 10.6279 1.61962C10.6501 1.67266 10.6613 1.73389 10.6613 1.80347V3.15085C10.6613 3.35572 10.8093 3.52596 11.0041 3.56075C11.152 3.596 11.2887 3.6325 11.4132 3.67069C11.5496 3.71244 11.6867 3.7599 11.8242 3.81356C11.831 3.81619 11.8378 3.81866 11.8446 3.82083C11.9647 3.86752 12.0914 3.92164 12.2243 3.98302C12.3595 4.04534 12.4853 4.10858 12.6019 4.17213C12.7663 4.26165 12.9645 4.22841 13.0913 4.10363L13.0915 4.10378L14.1543 3.05622C14.1576 3.05297 14.1608 3.04972 14.1641 3.04648C14.2094 2.99854 14.257 2.9636 14.3069 2.9418C14.3549 2.92092 14.4116 2.91025 14.4778 2.91025C14.5435 2.91025 14.6023 2.92139 14.6539 2.9435C14.7105 2.96762 14.7646 3.00535 14.8166 3.05622L14.8169 3.05653L16.1063 4.34886L16.107 4.34979L16.1063 4.35056C16.1591 4.40344 16.1966 4.45601 16.2187 4.50828C16.2402 4.55899 16.2508 4.61821 16.2508 4.68594C16.2508 4.75428 16.24 4.81458 16.2182 4.86623C16.1958 4.91926 16.1598 4.9706 16.1097 5.01977L16.1064 5.02301L15.1496 5.98291C15.0066 6.12671 14.9907 6.3489 15.1012 6.51017C15.1742 6.6232 15.2446 6.74334 15.3126 6.86952C15.385 7.00342 15.4499 7.13423 15.5087 7.26257C15.5697 7.39585 15.6271 7.53223 15.6811 7.67092C15.7299 7.79648 15.7796 7.93656 15.83 8.08933C15.8876 8.26436 16.0504 8.37538 16.2252 8.37538L17.6964 8.37554C17.7672 8.37554 17.8294 8.38652 17.8836 8.40847C17.9371 8.43043 17.9866 8.46383 18.0318 8.50913L18.0335 8.51099C18.0788 8.55629 18.1123 8.60562 18.1343 8.65912C18.1564 8.71339 18.1672 8.7757 18.1672 8.84636V10.6935C18.1672 10.7587 18.1569 10.8169 18.1358 10.8674C18.1136 10.9212 18.0774 10.974 18.027 11.0262L18.0265 11.0265C17.9809 11.0723 17.932 11.1062 17.8804 11.1277C17.8272 11.1499 17.766 11.1611 17.6964 11.1611H16.3492C16.1443 11.1611 15.9741 11.309 15.9393 11.504C15.904 11.6518 15.8675 11.7887 15.8293 11.9131C15.7874 12.0495 15.7401 12.1865 15.6865 12.324C15.6361 12.4549 15.5789 12.591 15.5151 12.732C15.4501 12.8763 15.3863 13.0077 15.3245 13.1266C15.2384 13.2914 15.2741 13.4878 15.3996 13.6126L15.3993 13.6129L16.4471 14.6575L16.4537 14.664C16.5016 14.7095 16.5366 14.7571 16.5582 14.8069C16.5793 14.8548 16.5898 14.9117 16.5898 14.9779C16.5898 15.0436 16.5786 15.1022 16.5567 15.1539C16.5326 15.2105 16.4948 15.2647 16.4438 15.3165L15.1591 16.6161C15.1088 16.6627 15.0564 16.6967 15.0015 16.7182C14.9465 16.74 14.884 16.7507 14.8141 16.7507C14.7436 16.7507 14.68 16.7397 14.6241 16.7176C14.5703 16.6964 14.5197 16.6639 14.4728 16.62L13.5205 15.6525C13.3769 15.5066 13.1519 15.4891 12.9889 15.6017C12.8762 15.6743 12.7564 15.7444 12.6305 15.8123C12.4966 15.8848 12.3658 15.9497 12.2375 16.0083C12.1042 16.0695 11.9678 16.1269 11.8291 16.1807C11.7036 16.2294 11.5637 16.2792 11.4107 16.3296C11.2357 16.3873 11.1247 16.5501 11.1247 16.7248L11.1245 18.1965C11.1245 18.267 11.1135 18.3294 11.0914 18.3836C11.0695 18.4373 11.0361 18.4866 10.9908 18.5319L10.99 18.5328L10.9892 18.5319C10.8985 18.6227 10.7871 18.6674 10.6539 18.6674H8.80707C8.74151 18.6674 8.68352 18.657 8.63281 18.636C8.579 18.6137 8.52627 18.5775 8.47432 18.5271L8.4737 18.5267C8.42809 18.4809 8.39423 18.4322 8.37258 18.3805C8.35016 18.3273 8.33903 18.2663 8.33903 18.1967V16.8492C8.33903 16.6444 8.19136 16.474 7.99623 16.4394C7.84857 16.4042 7.71173 16.3675 7.5871 16.3295C7.45088 16.2876 7.31373 16.2403 7.17643 16.1868C7.04531 16.1362 6.90909 16.079 6.76777 16.0153C6.62397 15.9502 6.49239 15.8866 6.37395 15.8248C6.20881 15.7387 6.01244 15.7745 5.88766 15.8999L5.88735 15.8996L4.84273 16.9472L4.8364 16.9538C4.79047 17.0021 4.74285 17.0369 4.69322 17.0585C4.64466 17.0794 4.58606 17.0901 4.51617 17.0901C4.44768 17.0901 4.38815 17.0789 4.33681 17.0568C4.28517 17.0344 4.23708 16.9999 4.19333 16.9537C4.18853 16.9484 4.18343 16.9433 4.17786 16.9382L2.88384 15.6592C2.83761 15.6091 2.80344 15.5565 2.7821 15.5016C2.7603 15.4466 2.74947 15.384 2.74947 15.3141C2.74947 15.2436 2.7603 15.18 2.78241 15.124C2.8039 15.0702 2.83622 15.0198 2.88028 14.973L3.84759 14.0205C3.99371 13.8768 4.01103 13.652 3.89862 13.4889C3.82579 13.3762 3.75575 13.2563 3.68787 13.1306C3.61535 12.9969 3.55041 12.8659 3.49181 12.7376C3.43073 12.6043 3.37337 12.4679 3.31941 12.3292C3.27085 12.2037 3.22091 12.0636 3.17051 11.9107C3.11283 11.7356 2.95002 11.6246 2.77514 11.6246L1.30377 11.6245C1.2331 11.6245 1.17064 11.6135 1.11652 11.5914C1.06302 11.5694 1.01354 11.536 0.968237 11.4909L0.966692 11.4892C0.921387 11.4437 0.887526 11.3944 0.865879 11.3407C0.843767 11.2866 0.832943 11.2243 0.832943 11.1536V9.30652C0.832943 9.24127 0.843149 9.18313 0.864332 9.13241C0.886442 9.07876 0.922625 9.02588 0.97303 8.97362L0.97365 8.97315C1.01926 8.92739 1.06812 8.89368 1.11977 8.87203C1.17265 8.84976 1.23388 8.83863 1.30361 8.83863H2.65083C2.85833 8.83863 3.03011 8.68726 3.06181 8.48888C3.09443 8.35853 3.13123 8.22633 3.17298 8.09211C3.21318 7.96331 3.26019 7.82709 3.31523 7.68314C3.31801 7.67618 3.32033 7.66907 3.3225 7.66196C3.37476 7.52511 3.42826 7.39647 3.48315 7.27602C3.54268 7.14567 3.60577 7.01965 3.67256 6.89781C3.76193 6.73345 3.72869 6.53522 3.60406 6.40843V6.40828L2.55651 5.3454C2.55326 5.34216 2.55017 5.33891 2.54676 5.33566C2.49868 5.29036 2.46373 5.24273 2.44193 5.19294C2.42106 5.14501 2.41023 5.08827 2.41023 5.02209C2.41023 4.95637 2.42137 4.89762 2.44348 4.84597C2.4676 4.78938 2.50533 4.73526 2.55635 4.68331L2.55666 4.683L3.84914 3.3936L3.85069 3.39221ZM3.68648 2.51689C3.53155 2.5823 3.39084 2.67801 3.26405 2.8048L3.26374 2.80496L1.96786 4.09791L1.96461 4.10116C1.83984 4.22795 1.74443 4.36757 1.67918 4.52065C1.61177 4.67852 1.57775 4.84566 1.57775 5.02209C1.57775 5.20114 1.61254 5.36844 1.68104 5.52476C1.74784 5.67815 1.8454 5.81453 1.97157 5.93498L2.80143 6.7769C2.77699 6.82777 2.75257 6.87926 2.72891 6.93136C2.66242 7.0764 2.6015 7.22175 2.54615 7.36724C2.54305 7.37374 2.54042 7.38039 2.53795 7.38719C2.48275 7.53207 2.42987 7.68608 2.37947 7.84812C2.36323 7.90038 2.34746 7.95295 2.33231 8.00599H1.30377C1.12502 8.00599 0.957724 8.03877 0.800938 8.10433C0.646935 8.16881 0.507776 8.2639 0.383615 8.38899L0.374802 8.3978C0.252497 8.52428 0.159723 8.66375 0.0966377 8.81683C0.0320072 8.97253 0 9.13566 0 9.30652V11.1535C0 11.3311 0.0313873 11.4975 0.0947838 11.6529C0.158178 11.808 0.252651 11.9489 0.378977 12.0755L0.379595 12.076L0.380522 12.077L0.381142 12.0777C0.507931 12.204 0.648636 12.2988 0.804184 12.3622C0.959734 12.4254 1.12611 12.457 1.30361 12.457H2.48012C2.50069 12.5123 2.52203 12.5695 2.54506 12.628C2.60398 12.7793 2.66768 12.9307 2.73679 13.0819C2.80838 13.2383 2.88121 13.3859 2.95543 13.5237C2.97986 13.5688 3.00491 13.6138 3.03057 13.6588L2.29612 14.3818C2.29071 14.3869 2.28561 14.392 2.28004 14.3976C2.15959 14.525 2.06898 14.6665 2.00791 14.8211C1.94668 14.9764 1.91637 15.1409 1.91637 15.3138C1.91637 15.486 1.94653 15.6491 2.00729 15.8038C2.06806 15.9579 2.15774 16.0988 2.27695 16.2265C2.28113 16.2308 2.28546 16.2353 2.28994 16.2396L3.5934 17.5281C3.7157 17.6563 3.85347 17.7543 4.00809 17.8208C4.16426 17.8882 4.3331 17.9224 4.51571 17.9224C4.69445 17.9224 4.86299 17.8874 5.02132 17.8193C5.17811 17.7514 5.31665 17.6532 5.43741 17.5258L6.2637 16.6973C6.3189 16.7239 6.37302 16.7491 6.42559 16.7729C6.5663 16.8363 6.71674 16.8989 6.87647 16.9606C7.0266 17.0191 7.18323 17.073 7.34574 17.1228C7.39986 17.1394 7.4532 17.1552 7.50577 17.1702V18.1965C7.50577 18.3751 7.53871 18.5426 7.60427 18.6992C7.6689 18.8534 7.76368 18.9924 7.88908 19.1167L7.89789 19.1257C8.02437 19.2477 8.164 19.3403 8.31676 19.4037C8.47262 19.4681 8.63574 19.5002 8.8066 19.5002H10.6537C11.0169 19.5002 11.3237 19.3749 11.5779 19.1207L11.5771 19.1199C11.7039 18.993 11.799 18.8518 11.8624 18.6961C11.9258 18.5406 11.9573 18.3743 11.9573 18.1967V17.0202C12.0128 16.9996 12.0699 16.9781 12.1285 16.9552C12.2797 16.8963 12.4311 16.8326 12.5823 16.7633C12.7386 16.6919 12.8863 16.6189 13.0242 16.5445C13.0692 16.5203 13.1142 16.4952 13.1592 16.4696L13.8822 17.204C13.8873 17.2094 13.8926 17.2147 13.898 17.2199C14.0254 17.3407 14.1669 17.4313 14.3215 17.4922C14.4767 17.5535 14.6412 17.5839 14.8141 17.5839C14.9863 17.5839 15.1496 17.5538 15.3041 17.4928C15.4582 17.4321 15.599 17.3424 15.7268 17.2233L15.7267 17.223C15.7312 17.219 15.7356 17.2147 15.7398 17.2102L17.0357 15.8993C17.1603 15.7725 17.2557 15.6327 17.321 15.4797C17.3882 15.3216 17.4224 15.1546 17.4224 14.9784C17.4224 14.7993 17.3876 14.632 17.3193 14.4755C17.2517 14.3211 17.1537 14.1839 17.026 14.0627L16.1973 13.2364C16.2239 13.1812 16.2493 13.1271 16.2731 13.074C16.3367 12.9335 16.3991 12.7834 16.4607 12.6238C16.5191 12.4736 16.5732 12.317 16.623 12.1544C16.6396 12.1001 16.6553 12.0469 16.6703 11.9943H17.6964C17.8751 11.9943 18.0426 11.9614 18.1991 11.8958C18.3534 11.8313 18.4924 11.7364 18.6165 11.6112L18.6255 11.6019C18.7477 11.4756 18.8403 11.3359 18.9035 11.183C18.968 11.0272 19 10.864 19 10.6935V8.84636C19 8.6687 18.9685 8.50233 18.9051 8.34693C18.8417 8.19154 18.7472 8.05068 18.6207 7.92404L18.6206 7.92389L18.6196 7.92311L18.6189 7.92234C18.4921 7.79586 18.3514 7.70123 18.1958 7.63783C18.0404 7.57444 17.874 7.54305 17.6964 7.54305H16.5199C16.4995 7.48754 16.4778 7.43049 16.4549 7.37188C16.3962 7.22066 16.3323 7.06929 16.2631 6.91791C16.1916 6.76159 16.1188 6.61392 16.0443 6.47616C16.0195 6.43023 15.9939 6.38431 15.9676 6.33839L16.6914 5.61228L16.6917 5.61213C16.8195 5.48642 16.9163 5.34494 16.9823 5.18862C17.0499 5.02905 17.0833 4.86112 17.0833 4.68625C17.0833 4.51168 17.0501 4.3453 16.983 4.18651C16.9165 4.02926 16.8206 3.88778 16.6949 3.76207L16.6941 3.76284L15.4021 2.46772L15.3989 2.46448C15.2721 2.33985 15.1325 2.24445 14.9794 2.1792C14.8214 2.11194 14.6544 2.07761 14.478 2.07761C14.2991 2.07761 14.1318 2.1124 13.9753 2.18075C13.8219 2.2477 13.6855 2.34511 13.5651 2.47144L12.7238 3.30052C12.6732 3.27547 12.6228 3.25151 12.5726 3.22831C12.4431 3.16863 12.3003 3.10848 12.1439 3.04787C12.1373 3.04478 12.1305 3.04199 12.1237 3.03936C11.9736 2.98092 11.8168 2.9268 11.6541 2.87701C11.6 2.86047 11.5466 2.84469 11.4941 2.8297V1.80347C11.4941 1.62488 11.4611 1.45742 11.3956 1.30094C11.3311 1.14663 11.236 1.00763 11.1109 0.883309L11.1021 0.874495C10.9756 0.752344 10.8362 0.65988 10.6832 0.596639C10.5274 0.532007 10.3643 0.5 10.1934 0.5H8.3466C8.1691 0.5 8.00257 0.531388 7.84718 0.594784C7.69101 0.658488 7.54969 0.753581 7.42228 0.880835C7.29642 1.00701 7.20148 1.14802 7.13778 1.30404C7.07438 1.45943 7.04299 1.62581 7.04299 1.80331V2.97999C6.98748 3.00055 6.93058 3.0222 6.87183 3.04493C6.72076 3.10369 6.56954 3.16755 6.41817 3.23666C6.26169 3.3081 6.11403 3.38108 5.97642 3.45561C5.93019 3.4805 5.88426 3.50601 5.83834 3.5323L5.11239 2.80851L5.11208 2.80836C4.98638 2.68049 4.84474 2.58369 4.68873 2.51767C4.52901 2.4501 4.3614 2.4167 4.18652 2.4167C4.01165 2.4167 3.84527 2.44979 3.68648 2.51689ZM9.50008 5.96528C9.2247 5.96528 8.95597 5.99157 8.69388 6.04383C8.43628 6.09532 8.18085 6.17433 7.92804 6.28102L7.92526 6.28226L7.92464 6.28102C7.68328 6.38524 7.45444 6.50971 7.23797 6.65475C7.02351 6.79839 6.82482 6.96059 6.64268 7.14103L6.64113 7.14273C6.46054 7.32503 6.29834 7.52357 6.15469 7.73818C6.00966 7.95466 5.88534 8.1835 5.78113 8.42486C5.77634 8.4363 5.77201 8.44775 5.76814 8.45934C5.66826 8.70195 5.59326 8.94671 5.5441 9.19395C5.49152 9.45619 5.46555 9.72477 5.46555 10C5.46555 10.2754 5.49152 10.5441 5.5441 10.8062C5.59543 11.064 5.6746 11.3191 5.78113 11.572L5.78237 11.5748L5.78113 11.5754C5.88534 11.8168 6.00982 12.0455 6.15469 12.262C6.29849 12.4766 6.46069 12.6751 6.64113 12.8574L6.64268 12.8591C6.82513 13.0397 7.02351 13.2019 7.23828 13.3456C7.45444 13.4906 7.68343 13.6149 7.92464 13.7191C7.93608 13.7239 7.94753 13.7284 7.95943 13.7321C8.20188 13.8322 8.4468 13.907 8.69388 13.9563C8.95597 14.0087 9.22485 14.0349 9.50008 14.0349C9.77546 14.0349 10.044 14.0087 10.3061 13.9563C10.5639 13.9048 10.8191 13.8257 11.0721 13.7191L11.0749 13.7179L11.0754 13.7191C11.3167 13.6149 11.5457 13.4904 11.762 13.3456C11.9766 13.2019 12.1752 13.0397 12.3573 12.8591L12.3589 12.8574C12.5395 12.675 12.7018 12.4766 12.8453 12.2618C12.9902 12.0455 13.1147 11.8165 13.2187 11.5754C13.2237 11.564 13.228 11.5526 13.2319 11.5408C13.3319 11.2982 13.4067 11.0534 13.4561 10.8062C13.5083 10.5441 13.5346 10.2754 13.5346 10C13.5346 9.72462 13.5085 9.45604 13.4561 9.19395C13.4046 8.9362 13.3254 8.68092 13.2187 8.42811L13.2176 8.42533L13.2187 8.42486C13.1147 8.1835 12.99 7.95466 12.8453 7.73834C12.7017 7.52357 12.5395 7.32519 12.3589 7.14273L12.3572 7.14119C12.175 6.96074 11.9765 6.79854 11.762 6.6549C11.5456 6.51002 11.3166 6.38539 11.0752 6.28118C11.0638 6.27623 11.0523 6.2719 11.0406 6.26819C10.798 6.16815 10.5534 6.09347 10.3061 6.04414C10.044 5.99157 9.77546 5.96528 9.50008 5.96528ZM8.85654 6.86024C9.06435 6.81864 9.27866 6.79792 9.50008 6.79792C9.72134 6.79792 9.93565 6.81864 10.1436 6.86024C10.3455 6.90059 10.5384 6.95842 10.722 7.03372C10.7301 7.03774 10.7383 7.04176 10.7468 7.04532C10.9475 7.13206 11.1321 7.23164 11.3003 7.34421C11.4698 7.45754 11.6266 7.58588 11.771 7.72875C11.914 7.87332 12.0424 8.03042 12.1558 8.20004C12.2684 8.36812 12.368 8.55258 12.4546 8.75328L12.4557 8.75282C12.5362 8.94408 12.5974 9.1454 12.6398 9.35662C12.6813 9.56443 12.702 9.77874 12.702 10C12.702 10.2213 12.6813 10.4356 12.6398 10.6435C12.5995 10.8455 12.5415 11.0383 12.4662 11.222C12.4622 11.2302 12.4581 11.2382 12.4546 11.2467C12.368 11.4474 12.2684 11.6317 12.156 11.7998C12.0425 11.9694 11.9142 12.1265 11.771 12.2711C11.6266 12.4141 11.4696 12.5423 11.3002 12.6556C11.1321 12.7682 10.9476 12.8678 10.7468 12.9545L10.7473 12.9556C10.5558 13.0362 10.3547 13.0976 10.1435 13.1396C9.93565 13.1812 9.72118 13.2018 9.49992 13.2018C9.27866 13.2018 9.0642 13.181 8.85639 13.1396C8.6543 13.0993 8.46164 13.0414 8.2778 12.9661C8.26991 12.9621 8.26156 12.9581 8.25306 12.9545C8.05251 12.8678 7.86805 12.7682 7.69982 12.6556C7.53036 12.5423 7.37342 12.414 7.229 12.2711C7.08582 12.1265 6.95749 11.9696 6.844 11.8C6.73159 11.6319 6.63201 11.4474 6.54558 11.2467L6.54434 11.2472C6.46378 11.0559 6.4024 10.8546 6.36019 10.6435C6.31875 10.4356 6.29803 10.2213 6.29803 10C6.29803 9.77874 6.3189 9.56443 6.36019 9.35662C6.4007 9.15452 6.45837 8.96187 6.53382 8.77802C6.538 8.76998 6.54171 8.76178 6.54558 8.75328C6.63201 8.55258 6.73159 8.36812 6.84431 8.20004C6.95749 8.03042 7.08598 7.87332 7.229 7.72891C7.37342 7.58604 7.53036 7.4577 7.69982 7.34436C7.86805 7.2318 8.05251 7.13222 8.25306 7.04548L8.25275 7.04439C8.44401 6.96384 8.64518 6.90245 8.85654 6.86024Z" fill="#FFFAFA"/>
</svg>
