<svg width="18" height="18" viewBox="0 0 18 18" fill="none" xmlns="http://www.w3.org/2000/svg">
<path fill-rule="evenodd" clip-rule="evenodd" d="M0 15.9333H2.15625V0.249978C2.15625 0.113047 2.26025 0 2.38623 0H9.68994C9.81592 0 9.91992 0.113047 9.91992 0.249978V6.13003H16.3828C16.5088 6.13003 16.6128 6.24308 16.6128 6.38001V15.9317H18V18H0V15.9333ZM4.00195 2.35966H5.49609C5.5415 2.35966 5.57959 2.40106 5.57959 2.45042V4.4184C5.57959 4.46776 5.5415 4.50915 5.49609 4.50915H4.00195C3.95654 4.50915 3.91846 4.46776 3.91846 4.4184V2.45042C3.91846 2.40106 3.95654 2.35966 4.00195 2.35966ZM6.5332 12.1486H8.02734C8.07275 12.1486 8.11084 12.19 8.11084 12.2394V14.2073C8.11084 14.2567 8.07275 14.2981 8.02734 14.2981H6.5332C6.48779 14.2981 6.44971 14.2567 6.44971 14.2073V12.2394C6.44971 12.1884 6.48779 12.1486 6.5332 12.1486ZM4.00195 12.1486H5.49609C5.5415 12.1486 5.57959 12.19 5.57959 12.2394V14.2073C5.57959 14.2567 5.5415 14.2981 5.49609 14.2981H4.00195C3.95654 14.2981 3.91846 14.2567 3.91846 14.2073V12.2394C3.91846 12.1884 3.95654 12.1486 4.00195 12.1486ZM6.5332 8.88456H8.02734C8.07275 8.88456 8.11084 8.92596 8.11084 8.97532V10.9433C8.11084 10.9927 8.07275 11.0341 8.02734 11.0341H6.5332C6.48779 11.0341 6.44971 10.9927 6.44971 10.9433V8.97691C6.44971 8.92596 6.48779 8.88456 6.5332 8.88456ZM4.00195 8.88456H5.49609C5.5415 8.88456 5.57959 8.92596 5.57959 8.97532V10.9433C5.57959 10.9927 5.5415 11.0341 5.49609 11.0341H4.00195C3.95654 11.0341 3.91846 10.9927 3.91846 10.9433V8.97691C3.91846 8.92596 3.95654 8.88456 4.00195 8.88456ZM6.5332 5.62211H8.02734C8.07275 5.62211 8.11084 5.66351 8.11084 5.71287V7.68085C8.11084 7.73021 8.07275 7.77161 8.02734 7.77161H6.5332C6.48779 7.77161 6.44971 7.73021 6.44971 7.68085V5.71287C6.44971 5.66351 6.48779 5.62211 6.5332 5.62211ZM4.00195 5.62211H5.49609C5.5415 5.62211 5.57959 5.66351 5.57959 5.71287V7.68085C5.57959 7.73021 5.5415 7.77161 5.49609 7.77161H4.00195C3.95654 7.77161 3.91846 7.73021 3.91846 7.68085V5.71287C3.91846 5.66351 3.95654 5.62211 4.00195 5.62211ZM6.5332 2.35966H8.02734C8.07275 2.35966 8.11084 2.40106 8.11084 2.45042V4.4184C8.11084 4.46776 8.07275 4.50915 8.02734 4.50915H6.5332C6.48779 4.50915 6.44971 4.46776 6.44971 4.4184V2.45042C6.44971 2.40106 6.48779 2.35966 6.5332 2.35966ZM3.39404 1.1655H8.65576C8.74658 1.1655 8.82129 1.26263 8.82129 1.38045V15.0528C8.82129 15.1706 8.74658 15.2678 8.65576 15.2678H3.39404C3.30322 15.2678 3.22852 15.1706 3.22852 15.0528V1.38045C3.22852 1.26263 3.30322 1.1655 3.39404 1.1655ZM10.6362 8.50721H12.1304C12.1758 8.50721 12.2139 8.54861 12.2139 8.59797V10.5659C12.2139 10.6153 12.1758 10.6567 12.1304 10.6567H10.6362C10.5908 10.6567 10.5527 10.6153 10.5527 10.5659V8.59797C10.5527 8.54861 10.5908 8.50721 10.6362 8.50721ZM13.1675 12.1486H14.6616C14.707 12.1486 14.7451 12.19 14.7451 12.2394V14.2073C14.7451 14.2567 14.707 14.2981 14.6616 14.2981H13.1675C13.1221 14.2981 13.084 14.2567 13.084 14.2073V12.2394C13.084 12.1884 13.1221 12.1486 13.1675 12.1486ZM10.6362 12.1486H12.1304C12.1758 12.1486 12.2139 12.19 12.2139 12.2394V14.2073C12.2139 14.2567 12.1758 14.2981 12.1304 14.2981H10.6362C10.5908 14.2981 10.5527 14.2567 10.5527 14.2073V12.2394C10.5527 12.1884 10.5908 12.1486 10.6362 12.1486ZM13.1675 8.50721H14.6616C14.707 8.50721 14.7451 8.54861 14.7451 8.59797V10.5659C14.7451 10.6153 14.707 10.6567 14.6616 10.6567H13.1675C13.1221 10.6567 13.084 10.6153 13.084 10.5659V8.59797C13.084 8.54861 13.1221 8.50721 13.1675 8.50721ZM10.0869 7.29553H15.3486C15.4395 7.29553 15.5142 7.39266 15.5142 7.51048V15.0528C15.5142 15.1706 15.4395 15.2678 15.3486 15.2678H10.0869C9.99609 15.2678 9.92139 15.1706 9.92139 15.0528V7.51048C9.92139 7.39266 9.99609 7.29553 10.0869 7.29553Z" fill="white"/>
</svg>
