<svg width="17" height="20" viewBox="0 0 17 20" fill="none" xmlns="http://www.w3.org/2000/svg">
<path d="M7.98671 0.879907C7.98671 0.670085 8.21663 0.5 8.49992 0.5C8.78322 0.5 9.01313 0.670085 9.01313 0.879907V7.74159C9.01313 7.95141 8.78337 8.12149 8.49992 8.12149C8.21648 8.12149 7.98671 7.95141 7.98671 7.74159V0.879907ZM11.0694 3.54003C10.8036 3.43984 10.6672 3.13724 10.7648 2.86387C10.8621 2.59065 11.1563 2.45041 11.4222 2.5506C13.0705 3.17141 14.4806 4.30387 15.4707 5.76149C16.4345 7.18 17 8.90342 17 10.7597C17 13.1727 16.0483 15.3578 14.51 16.9398C12.9718 18.5214 10.8467 19.5002 8.49992 19.5002C6.15311 19.5002 4.02809 18.5216 2.48981 16.9398C0.951687 15.3578 0 13.1727 0 10.7597C0 8.90342 0.565389 7.18 1.52911 5.76149C2.51929 4.30387 3.9293 3.17141 5.57765 2.5506C5.84335 2.45056 6.13777 2.5908 6.23506 2.86387C6.3325 3.13709 6.19612 3.43984 5.93041 3.54003C4.478 4.08709 3.23685 5.08285 2.36696 6.36328C1.52204 7.60706 1.02627 9.12267 1.02627 10.7597C1.02627 12.8815 1.86293 14.8027 3.2155 16.1936C4.56807 17.5844 6.43641 18.4449 8.49992 18.4449C10.5634 18.4449 12.4318 17.5845 13.7844 16.1936C15.1369 14.8029 15.9736 12.8815 15.9736 10.7597C15.9736 9.12267 15.4778 7.60706 14.6329 6.36328C13.7628 5.0827 12.5219 4.08693 11.0694 3.54003Z" fill="white"/>
</svg>
